<?xml version="1.0" encoding="UTF-8"?>
<svg version="1.1" xmlns="http://www.w3.org/2000/svg" width="100" height="100">
<path d="M0 0 C1.68725586 1.08740234 1.68725586 1.08740234 3 3 C3.61826619 7.4480529 3.55739846 11.91814128 3.5559082 16.40380859 C3.56241943 18.59785109 3.61673591 20.7872379 3.67382812 22.98046875 C3.77562409 31.46639127 2.9156897 37.495979 -3 44 C-7.45074976 49.31049583 -8.67436701 53.22393601 -9.25 60.23046875 C-10.27595575 64.01902409 -11.62069359 65.0559904 -15 67 C-18.59375 67.56640625 -18.59375 67.56640625 -22.5 67.5625 C-23.7890625 67.58441406 -25.078125 67.60632813 -26.40625 67.62890625 C-30 67 -30 67 -32.92578125 65.04296875 C-35.76017073 60.88479662 -35.8044851 57.68303165 -35.6875 52.75 C-35.67170898 51.89462646 -35.65591797 51.03925293 -35.63964844 50.15795898 C-35.33340029 43.1974712 -33.98487329 39.00326765 -29 34 C-28.0226199 32.95910044 -27.04612998 31.91736462 -26.0703125 30.875 C-17.05410027 21.45286426 -17.05410027 21.45286426 -13 20 C-12.01 20 -11.02 20 -10 20 C-10.03480469 18.80761719 -10.06960937 17.61523438 -10.10546875 16.38671875 C-10.13360753 14.82032658 -10.1609076 13.25391919 -10.1875 11.6875 C-10.21263672 10.90181641 -10.23777344 10.11613281 -10.26367188 9.30664062 C-10.27333984 8.54931641 -10.28300781 7.79199219 -10.29296875 7.01171875 C-10.3086792 6.31522217 -10.32438965 5.61872559 -10.34057617 4.90112305 C-9.3345965 -0.71433479 -4.81620478 -0.51602194 0 0 Z " fill="#1BC007" transform="translate(89,25)"/>
<path d="M0 0 C2.03238613 1.52115275 2.88885228 2.37956464 3.34057617 4.90112305 C3.32486572 5.59761963 3.30915527 6.29411621 3.29296875 7.01171875 C3.28330078 7.76904297 3.27363281 8.52636719 3.26367188 9.30664062 C3.23853516 10.09232422 3.21339844 10.87800781 3.1875 11.6875 C3.17396484 12.48478516 3.16042969 13.28207031 3.14648438 14.10351562 C3.11117089 16.06929967 3.05736447 18.03473582 3 20 C3.74636719 20.10183594 4.49273437 20.20367187 5.26171875 20.30859375 C9.87363762 21.47308682 12.63003606 24.77898475 16 28 C17.06541016 28.98806641 17.06541016 28.98806641 18.15234375 29.99609375 C23.56637593 35.16815801 28.0183561 39.9411094 28.56640625 47.6640625 C28.58609112 49.31759168 28.58446055 50.97149948 28.5625 52.625 C28.59827148 53.87410156 28.59827148 53.87410156 28.63476562 55.1484375 C28.62466498 59.37723968 28.35493538 61.47598387 25.93359375 65.05078125 C22.22088596 67.5176803 19.93261618 67.63785448 15.5 67.5625 C14.2109375 67.56378906 12.921875 67.56507812 11.59375 67.56640625 C7.47821781 66.91776259 5.7789589 66.08249867 3 63 C2.42578125 60.4765625 2.42578125 60.4765625 2.3125 57.625 C1.28653681 49.12416214 -3.89486956 43.53672787 -9 37 C-11.24946003 32.50107993 -10.22721927 26.34797563 -10.24023438 21.34204102 C-10.2499479 19.07466051 -10.28097393 16.80818361 -10.3125 14.54101562 C-10.31902942 13.10156789 -10.32428014 11.66211366 -10.328125 10.22265625 C-10.3374707 8.91047119 -10.34681641 7.59828613 -10.35644531 6.24633789 C-10 3 -10 3 -8.69824219 1.07202148 C-5.81991485 -0.74493299 -3.2907988 -0.35258559 0 0 Z " fill="#1BC007" transform="translate(18,25)"/>
<path d="M0 0 C0.886875 0.53625 1.77375 1.0725 2.6875 1.625 C3.450625 2.07875 4.21375 2.5325 5 3 C7.16666667 2.33333333 7.16666667 2.33333333 9 1 C12.61930698 -0.20643566 15.19231005 -0.32268559 19 0 C22.70390021 2.02666238 24.65363011 3.48044516 27 7 C27.73641719 11.05029455 27.93293212 15.15317518 26.04296875 18.89453125 C21.5714053 24.39700271 15.521819 28.61640945 10 33 C9.67 33.33 9.34 33.66 9 34 C5.31471368 34.42864323 3.55953057 34.38916346 0.47265625 32.2421875 C-0.32269531 31.46101563 -1.11804688 30.67984375 -1.9375 29.875 C-2.79085937 29.05644531 -3.64421875 28.23789062 -4.5234375 27.39453125 C-5.74933594 26.20923828 -5.74933594 26.20923828 -7 25 C-8.3442685 23.84257026 -9.69699698 22.69479983 -11.0625 21.5625 C-14.86559408 18.24490729 -14.86559408 18.24490729 -15.23828125 14.79296875 C-15.43884011 7.75229732 -15.43884011 7.75229732 -13.25 4 C-8.88237349 0.11766533 -5.91659784 -0.51899981 0 0 Z " fill="#1CC108" transform="translate(44,12)"/>
</svg>
